<?xml version="1.0" encoding="UTF-8"?>
<svg id="Layer_2" data-name="Layer 2" xmlns="http://www.w3.org/2000/svg" version="1.1" viewBox="0 0 512 512">
  <defs>
    <style>
      .cls-1 {
        fill: #000;
        stroke-width: 0px;
      }
    </style>
  </defs>
  <g id="Layer_1-2" data-name="Layer 1-2">
    <g>
      <path class="cls-1" d="M512,240.5v31.9c-.3,1.3-.7,2.6-.8,3.9-3.4,43.8-16.9,84.3-41.4,120.7-40.7,60.4-97,97.7-168.8,111.1-9.4,1.8-19,2.7-28.5,4h-31.9c-1.4-.3-2.9-.7-4.3-.9-32.5-2.5-63.5-10.9-92.6-25.5C45.8,436.9-9.7,335.3,3,226.3,11.4,153.5,45.9,94.7,104.6,51.2c82.8-61.4,190.8-67.6,279.5-15.9,68.2,39.7,109.4,99.4,124,177.1,1.7,9.3,2.6,18.7,3.9,28.1ZM109.7,406.4c7.1,0,13-.4,18.9.1,5.2.5,8.5-1.6,11.8-5.5,30.6-35.8,61.3-71.4,92-107.1,1.1-1.2,2.2-2.4,3.5-3.8,1.4,2,2.5,3.6,3.7,5.2,24.6,35.8,49.2,71.5,73.7,107.3,1.7,2.5,3.4,3.9,6.8,3.8,26.3-.2,52.6,0,78.8-.1,1.2,0,2.4-.3,4.2-.5-39.8-57.9-79.2-115.2-118.5-172.6,36.4-42.4,72.5-84.3,109.4-127.2-7.5,0-13.8.3-20.1,0-4.3-.3-7,1.3-9.7,4.5-29.2,34.1-58.5,68.2-87.8,102.2-1,1.2-2.1,2.3-3.4,3.7-1.8-2.5-3.3-4.7-4.8-6.9-22.8-33.2-45.6-66.3-68.3-99.5-1.7-2.5-3.4-3.9-6.8-3.9-26.3.2-52.6,0-78.8,0-1.2,0-2.4.3-4.2.5,38.3,55.8,76.2,111,114.3,166.5-38,44.2-75.9,88.3-114.6,133.2h0Z"/>
      <path class="cls-1" d="M367.6,387.9c-13.1,0-25.2.1-37.3-.2-1.6,0-3.6-2.1-4.7-3.6-30-42.7-59.9-85.5-89.8-128.3-29-41.6-58.1-83.1-87.1-124.7-1-1.5-2.1-3-3.4-5,1.6-.2,2.8-.4,4-.4,10.5,0,21-.2,31.4.1,2.1,0,4.9,1.3,6,3,59.6,85.1,119.1,170.2,178.6,255.3.6.9,1.2,1.9,2.3,3.8h0Z"/>
    </g>
  </g>
</svg>