<?xml version="1.0" encoding="UTF-8"?>
<svg id="Layer_2" data-name="Layer 2" xmlns="http://www.w3.org/2000/svg" viewBox="0 0 100 100">
  <defs>
    <style>
      .cls-1 {
        fill: #1895bf;
      }

      .cls-1, .cls-2 {
        stroke-width: 0px;
      }

      .cls-2 {
        fill: #fff;
      }
    </style>
  </defs>
  <g id="Layer_1-2" data-name="Layer 1">
    <circle class="cls-1" cx="50" cy="50" r="50"/>
    <g>
      <path class="cls-2" d="M44.28,67.55c0-3-.01-6.01.01-9.01,0-.54-.17-.7-.68-.75-3.04-.33-5.01-1.98-6.07-4.83-1.01-2.72-1.45-5.56-2.02-8.38-1.14-5.69-2.25-11.39-3.38-17.08-.26-1.31-.53-2.62-.8-3.93-.08-.39-.02-.66.44-.75.34-.07.67-.14,1.02-.14,3.2,0,6.39,0,9.59,0,.43,0,.66.06.74.56.65,4.07,1.33,8.14,2.01,12.2.53,3.2,1.07,6.4,1.61,9.6.05.32.13.63.22.94.62,2.16,3.66,3.03,5.38,1.52.65-.57.78-1.41.92-2.19.45-2.49.84-5,1.25-7.5.58-3.55,1.15-7.1,1.73-10.64.22-1.32.46-2.63.64-3.96.06-.41.17-.55.58-.55,3.43.01,6.85,0,10.28.01.96,0,1.02.13.84,1.05-1.56,7.88-3.13,15.77-4.68,23.66-.44,2.24-.88,4.47-1.86,6.56-1.13,2.42-3.14,3.55-5.68,3.84-.6.07-.7.28-.7.81.01,5.94,0,11.87.03,17.81,0,.73-.22.87-.89.86-3.24-.03-6.48-.04-9.72,0-.68,0-.83-.2-.83-.85.04-2.96.02-5.91.02-8.87Z"/>
      <path class="cls-2" d="M28.25,23.58c.47,2.37.94,4.74,1.41,7.1,1.16,5.87,2.3,11.75,3.48,17.61.39,1.94.91,3.85,1.73,5.66.11.25.12.49.12.74,0,7.32,0,14.65.01,21.97,0,.52-.14.66-.66.65-3.36-.02-6.72-.02-10.07,0-.5,0-.68-.1-.68-.64.02-14.25,0-28.51.03-42.76,0-2.67.44-5.28,1.87-7.62.69-1.13,1.7-2.13,2.76-2.71Z"/>
      <path class="cls-2" d="M71.79,23.46c2.19,1.4,3.36,3.38,4,5.72.45,1.66.61,3.35.61,5.07,0,14.09,0,28.19.01,42.28,0,.64-.16.8-.8.79-3.31-.03-6.62-.03-9.94,0-.53,0-.66-.15-.65-.66.02-7.28.01-14.56.02-21.83,0-.25,0-.53.11-.75,1.03-2.24,1.5-4.63,1.98-7.02.97-4.88,1.93-9.75,2.9-14.63.58-2.96,1.17-5.91,1.77-8.97Z"/>
    </g>
  </g>
</svg>