<?xml version="1.0" encoding="UTF-8"?>
<svg id="Layer_2" data-name="Layer 2" xmlns="http://www.w3.org/2000/svg" version="1.1" viewBox="0 0 512 512">
  <defs>
    <style>
      .cls-1 {
        fill: #000;
        stroke-width: 0px;
      }
    </style>
  </defs>
  <g id="Layer_1-2" data-name="Layer 1-2">
    <g>
      <path class="cls-1" d="M196.4,187.1h81v36.8c1.1-.6,1.7-.7,1.9-1,18.1-29,45.1-41.7,78.5-42.4,18.7-.4,36.9,1.9,54,10.1,22.1,10.6,34.5,28.9,41.4,51.7,5.5,18.3,7.4,37.2,7.6,56.2.4,52.6.2,105.1.3,157.7,0,.8-.1,1.6-.2,2.8h-84.8v-5.6c0-44.6.1-89.2-.2-133.8,0-10.1-.9-20.3-2.7-30.2-5.2-28-23.4-37.4-49.4-34.4-23.7,2.8-36.8,16.6-40.5,42.2-1.4,9.4-2,18.9-2,28.3-.2,42.6,0,85.2,0,127.8v6.3h-84.8V187.1Z"/>
      <path class="cls-1" d="M58.1,459.7V187.2h84.4v272.5H58.1Z"/>
      <path class="cls-1" d="M149.4,99.9c.1,27.1-21.9,49.6-48.8,49.7-27,.2-49.5-22.3-49.5-49.5,0-26.8,22-48.9,48.9-49.1,27.1-.2,49.3,21.7,49.5,48.9h0Z"/>
    </g>
  </g>
</svg>