<?xml version="1.0" encoding="UTF-8"?>
<svg id="Layer_2" data-name="Layer 2" xmlns="http://www.w3.org/2000/svg" version="1.1" viewBox="0 0 512 512">
  <defs>
    <style>
      .cls-1 {
        fill: #000;
        stroke-width: 0px;
      }
    </style>
  </defs>
  <g id="Layer_1-2" data-name="Layer 1-2">
    <path class="cls-1" d="M254.6,83c49.3,1.9,98.6,3.7,147.9,5.9,11.6.5,23.3,2.1,34.7,4.1,27.8,5,45.7,23.8,50.9,53.1,7.2,40.1,8.7,80.7,7.3,121.3-1,28.4-3.7,56.7-6.5,85-2,20.7-10.4,38.3-28.7,50.1-11.2,7.2-23.8,9.3-36.6,10.6-49.6,5.2-99.5,6.4-149.3,6.2-50.2-.2-100.3-1.8-150.5-3.4-16.1-.5-32.2-2.6-48.2-4.9-27.4-4-46.1-22.8-51.8-51-5.7-28.2-7-56.8-7.8-85.3-1.1-37.6,0-75.2,4.9-112.6,1.1-8.4,2.5-16.8,4.6-25,6.5-25.1,27-42,54.2-45.4,46.9-5.9,94.1-6.4,141.3-7.2,11.2-.2,22.3,0,33.5,0,0-.5,0-1,0-1.5h0ZM208.2,323.6c41.7-23.9,82.8-47.6,124.7-71.7-41.9-24.1-83-47.7-124.7-71.7v143.4h0Z"/>
  </g>
</svg>